# xmcd
#
# Track frame offsets:
#	150
#	8119
#	25588
#	38698
#	65104
#	80594
#
# Disc length: 1222 seconds
#
# Revision: 0
# Processed by: cddbd v1.5.1PL0 Copyright (c) Steve Scherf et al.
# Submitted via: dBpowerAMP V4.0
#
DISCID=4004c406
DTITLE=men at work - cargo
DYEAR=1997
DGENRE=blues
TTITLE0=bbb
TTITLE1=ccc
TTITLE2=ddd
TTITLE3=eee
TTITLE4=fff
TTITLE5=ggg
EXTD=
EXTT0=
EXTT1=
EXTT2=
EXTT3=
EXTT4=
EXTT5=
PLAYORDER=
